<svg width="34" height="30" viewBox="0 0 34 30" fill="none" xmlns="http://www.w3.org/2000/svg">
<path d="M11.8571 16.3333H22.1429M17 12.3333V20.3333M25.5714 27H8.42857C7.51926 27 6.64719 26.719 6.00421 26.219C5.36122 25.7189 5 25.0406 5 24.3333V5.66667C5 4.95942 5.36122 4.28115 6.00421 3.78105C6.64719 3.28095 7.51926 3 8.42857 3H18.0046C18.4592 3.00008 18.8952 3.1406 19.2166 3.39067L28.4977 10.6093C28.8192 10.8593 28.9999 11.1984 29 11.552V24.3333C29 25.0406 28.6388 25.7189 27.9958 26.219C27.3528 26.719 26.4807 27 25.5714 27Z" stroke="black" stroke-width="2" stroke-linecap="round" stroke-linejoin="round"/>
</svg>
