<svg width="26" height="26" viewBox="0 0 26 26" fill="none" xmlns="http://www.w3.org/2000/svg">
<g clip-path="url(#clip0_24_18)">
<path d="M11.9167 18.4167C11.9167 19.0125 12.4042 19.5 13 19.5C13.5958 19.5 14.0833 19.0125 14.0833 18.4167C14.0833 17.8208 13.5958 17.3333 13 17.3333C12.4042 17.3333 11.9167 17.8208 11.9167 18.4167ZM11.9167 3.25V7.58333H14.0833V5.50333C17.7558 6.03417 20.5833 9.17583 20.5833 13C20.5833 17.1925 17.1925 20.5833 13 20.5833C8.8075 20.5833 5.41667 17.1925 5.41667 13C5.41667 11.18 6.05583 9.51167 7.12833 8.21167L13 14.0833L14.5275 12.5558L7.16083 5.18917V5.21083C4.78833 6.9875 3.25 9.80417 3.25 13C3.25 18.3842 7.605 22.75 13 22.75C18.3842 22.75 22.75 18.3842 22.75 13C22.75 7.61583 18.3842 3.25 13 3.25H11.9167ZM19.5 13C19.5 12.4042 19.0125 11.9167 18.4167 11.9167C17.8208 11.9167 17.3333 12.4042 17.3333 13C17.3333 13.5958 17.8208 14.0833 18.4167 14.0833C19.0125 14.0833 19.5 13.5958 19.5 13ZM6.5 13C6.5 13.5958 6.9875 14.0833 7.58333 14.0833C8.17917 14.0833 8.66667 13.5958 8.66667 13C8.66667 12.4042 8.17917 11.9167 7.58333 11.9167C6.9875 11.9167 6.5 12.4042 6.5 13Z" fill="white"/>
</g>
<defs>
<clipPath id="clip0_24_18">
<rect width="26" height="26" fill="white"/>
</clipPath>
</defs>
</svg>
