<svg width="26" height="26" viewBox="0 0 26 26" fill="none" xmlns="http://www.w3.org/2000/svg">
<g clip-path="url(#clip0_24_25)">
<path d="M12.597 0.106988C12.7197 0.036877 12.8586 0 13 0C13.1414 0 13.2803 0.036877 13.403 0.106988L19.4967 3.58936C19.6211 3.6604 19.7245 3.76304 19.7964 3.88689C19.8683 4.01074 19.9062 4.1514 19.9062 4.29461V10.7865L25.5905 14.0365C25.7144 14.1072 25.8174 14.2094 25.8893 14.3326C25.9612 14.4558 25.9994 14.5958 26 14.7385V21.7032C26 21.8465 25.9621 21.9871 25.8901 22.111C25.8182 22.2348 25.7149 22.3375 25.5905 22.4085L19.4967 25.8909C19.374 25.961 19.2351 25.9979 19.0938 25.9979C18.9524 25.9979 18.8135 25.961 18.6908 25.8909L13 22.6409L7.30925 25.8925C7.18651 25.9626 7.0476 25.9995 6.90625 25.9995C6.7649 25.9995 6.62599 25.9626 6.50325 25.8925L0.4095 22.4101C0.285144 22.3391 0.181772 22.2364 0.109859 22.1126C0.0379458 21.9887 4.61939e-05 21.8481 0 21.7049L0 14.7401C4.61939e-05 14.5969 0.0379458 14.4562 0.109859 14.3324C0.181772 14.2085 0.285144 14.1059 0.4095 14.0349L6.09375 10.7865V4.29461C6.0938 4.1514 6.1317 4.01074 6.20361 3.88689C6.27552 3.76304 6.37889 3.6604 6.50325 3.58936L12.597 0.106988ZM6.90625 12.1937L2.4505 14.7401L6.90625 17.2865L11.362 14.7401L6.90625 12.1937ZM12.1875 16.1409L7.71875 18.6937V23.7865L12.1875 21.2336V16.1409ZM13.8125 21.2336L18.2812 23.7865V18.6937L13.8125 16.1409V21.2336ZM14.638 14.7401L19.0938 17.2865L23.5495 14.7401L19.0938 12.1937L14.638 14.7401ZM18.2812 10.7865V5.69374L13.8125 8.24824V13.341L18.2812 10.7865ZM12.1875 13.341V8.24824L7.71875 5.69374V10.7865L12.1875 13.341ZM8.54425 4.29461L13 6.84099L17.4557 4.29461L13 1.74824L8.54425 4.29461ZM24.375 16.1409L19.9062 18.6937V23.7865L24.375 21.2336V16.1409ZM6.09375 23.7865V18.6937L1.625 16.1409V21.2336L6.09375 23.7865Z" fill="white"/>
</g>
<defs>
<clipPath id="clip0_24_25">
<rect width="26" height="26" fill="white"/>
</clipPath>
</defs>
</svg>
