<svg width="50" height="40" viewBox="0 0 50 40" fill="none" xmlns="http://www.w3.org/2000/svg">
<path d="M0 0H38C44.6274 0 50 5.37258 50 12V28C50 34.6274 44.6274 40 38 40H0V0Z" fill="black" fill-opacity="0.5"/>
<path d="M33.163 11.837C33.2501 11.9241 33.3192 12.0274 33.3663 12.1412C33.4134 12.2549 33.4377 12.3769 33.4377 12.5C33.4377 12.6231 33.4134 12.7451 33.3663 12.8588C33.3192 12.9726 33.2501 13.0759 33.163 13.163L18.163 28.163C18.0759 28.2501 17.9726 28.3191 17.8588 28.3663C17.7451 28.4134 17.6231 28.4376 17.5 28.4376C17.3769 28.4376 17.2549 28.4134 17.1412 28.3663C17.0274 28.3191 16.9241 28.2501 16.837 28.163C16.7499 28.0759 16.6809 27.9726 16.6337 27.8588C16.5866 27.7451 16.5624 27.6231 16.5624 27.5C16.5624 27.3769 16.5866 27.2549 16.6337 27.1412C16.6809 27.0274 16.7499 26.9241 16.837 26.837L31.837 11.837C31.9241 11.7499 32.0274 11.6808 32.1412 11.6337C32.2549 11.5866 32.3769 11.5623 32.5 11.5623C32.6231 11.5623 32.7451 11.5866 32.8588 11.6337C32.9726 11.6808 33.0759 11.7499 33.163 11.837ZM19.75 17C19.1533 17 18.581 16.7629 18.159 16.341C17.7371 15.919 17.5 15.3467 17.5 14.75C17.5 14.1533 17.7371 13.581 18.159 13.159C18.581 12.7371 19.1533 12.5 19.75 12.5C20.3467 12.5 20.919 12.7371 21.341 13.159C21.7629 13.581 22 14.1533 22 14.75C22 15.3467 21.7629 15.919 21.341 16.341C20.919 16.7629 20.3467 17 19.75 17ZM19.75 18.5C20.7446 18.5 21.6984 18.1049 22.4017 17.4017C23.1049 16.6984 23.5 15.7446 23.5 14.75C23.5 13.7554 23.1049 12.8016 22.4017 12.0983C21.6984 11.3951 20.7446 11 19.75 11C18.7554 11 17.8016 11.3951 17.0983 12.0983C16.3951 12.8016 16 13.7554 16 14.75C16 15.7446 16.3951 16.6984 17.0983 17.4017C17.8016 18.1049 18.7554 18.5 19.75 18.5ZM30.25 27.5C29.6533 27.5 29.081 27.2629 28.659 26.841C28.2371 26.419 28 25.8467 28 25.25C28 24.6533 28.2371 24.081 28.659 23.659C29.081 23.2371 29.6533 23 30.25 23C30.8467 23 31.419 23.2371 31.841 23.659C32.2629 24.081 32.5 24.6533 32.5 25.25C32.5 25.8467 32.2629 26.419 31.841 26.841C31.419 27.2629 30.8467 27.5 30.25 27.5ZM30.25 29C31.2446 29 32.1984 28.6049 32.9016 27.9016C33.6049 27.1984 34 26.2446 34 25.25C34 24.2554 33.6049 23.3016 32.9016 22.5983C32.1984 21.8951 31.2446 21.5 30.25 21.5C29.2554 21.5 28.3016 21.8951 27.5983 22.5983C26.8951 23.3016 26.5 24.2554 26.5 25.25C26.5 26.2446 26.8951 27.1984 27.5983 27.9016C28.3016 28.6049 29.2554 29 30.25 29Z" fill="black"/>
</svg>
