<svg width="24" height="24" viewBox="0 0 24 24" fill="none" xmlns="http://www.w3.org/2000/svg">
<g clip-path="url(#clip0_66_172)">
<path d="M17.6122 15.5176C19.0646 13.5354 19.7151 11.0779 19.4336 8.63661C19.1521 6.19535 17.9593 3.95041 16.0939 2.35094C14.2285 0.751457 11.8281 -0.0846055 9.37278 0.010014C6.91751 0.104633 4.58849 1.12296 2.85168 2.86125C1.11487 4.59955 0.0983539 6.92963 0.00550469 9.38532C-0.0873446 11.841 0.750318 14.2412 2.35091 16.1057C3.95149 17.9702 6.19697 19.1616 8.63809 19.4414C11.0792 19.7212 13.5359 19.0688 15.5168 17.6148H15.5153C15.5593 17.6748 15.6083 17.7323 15.6623 17.7873L21.4371 23.5629C21.7183 23.8444 22.0999 24.0026 22.4978 24.0028C22.8956 24.0029 23.2773 23.845 23.5587 23.5637C23.8402 23.2824 23.9984 22.9008 23.9985 22.5028C23.9987 22.1049 23.8407 21.7232 23.5595 21.4417L17.7847 15.6661C17.7311 15.6118 17.6734 15.5631 17.6122 15.5176ZM17.9992 9.751C17.9992 10.8345 17.7858 11.9074 17.3712 12.9085C16.9566 13.9095 16.349 14.8191 15.5829 15.5852C14.8169 16.3514 13.9074 16.9592 12.9065 17.3738C11.9056 17.7884 10.8329 18.0019 9.74952 18.0019C8.66615 18.0019 7.5934 17.7884 6.5925 17.3738C5.5916 16.9592 4.68216 16.3514 3.9161 15.5852C3.15005 14.8191 2.54238 13.9095 2.1278 12.9085C1.71321 11.9074 1.49983 10.8345 1.49983 9.751C1.49983 7.56274 2.36899 5.46411 3.9161 3.91677C5.46322 2.36944 7.56156 1.50015 9.74952 1.50015C11.9375 1.50015 14.0358 2.36944 15.5829 3.91677C17.13 5.46411 17.9992 7.56274 17.9992 9.751Z" fill="black"/>
</g>
<defs>
<clipPath id="clip0_66_172">
<rect width="24" height="24" fill="white"/>
</clipPath>
</defs>
</svg>
