<svg width="32" height="32" viewBox="0 0 32 32" fill="none" xmlns="http://www.w3.org/2000/svg">
<path d="M25.3333 9.33333L24.1773 25.5227C24.1294 26.1954 23.8283 26.8251 23.3347 27.2848C22.8412 27.7444 22.1917 28 21.5173 28H10.4826C9.80811 28 9.15867 27.7444 8.6651 27.2848C8.17152 26.8251 7.87047 26.1954 7.82259 25.5227L6.66659 9.33333M13.3333 14.6667V22.6667M18.6666 14.6667V22.6667M19.9999 9.33333V5.33333C19.9999 4.97971 19.8594 4.64057 19.6094 4.39052C19.3593 4.14048 19.0202 4 18.6666 4H13.3333C12.9796 4 12.6405 4.14048 12.3904 4.39052C12.1404 4.64057 11.9999 4.97971 11.9999 5.33333V9.33333M5.33325 9.33333H26.6666" stroke="#FF0000" stroke-width="2" stroke-linecap="round" stroke-linejoin="round"/>
</svg>
